<svg xmlns="http://www.w3.org/2000/svg" width="120" height="120" fill="none">
  <path fill="url(#a)" fill-opacity=".25" fill-rule="evenodd" d="M15.366 46.387c-5.821 8.117-5.821 19.109 0 27.226l19.968 27.839c5.821 8.117 16.14 11.513 25.56 8.413l32.308-10.634C102.622 96.131 109 87.24 109 77.206V42.794c0-10.033-6.378-18.925-15.798-22.025L60.895 10.135c-9.42-3.1-19.74.296-25.561 8.413z" clip-rule="evenodd"/>
  <path fill="url(#b)" fill-opacity=".25" fill-rule="evenodd" d="M110.944 48.453a23.34 23.34 0 0 1 0 23.094L95.6 98.453C91.525 105.598 83.994 110 75.844 110H45.156c-8.15 0-15.68-4.402-19.756-11.547L10.056 71.547a23.34 23.34 0 0 1 0-23.094L25.4 21.547C29.475 14.402 37.006 10 45.156 10h30.688c8.15 0 15.68 4.402 19.756 11.547z" clip-rule="evenodd"/>
  <path fill="url(#c)" fill-opacity=".25" fill-rule="evenodd" d="M50.925 29.91a15.6 15.6 0 0 1 18.15 0l18.56 13.312c5.41 3.882 7.675 10.761 5.608 17.041l-7.089 21.539c-2.067 6.28-7.995 10.531-14.684 10.531H48.53c-6.69 0-12.617-4.251-14.684-10.531l-7.09-21.539c-2.066-6.28.198-13.16 5.61-17.04z" clip-rule="evenodd"/>
  <path fill="#F2F2F3" fill-rule="evenodd" d="M80.312 46.596c.888.821.92 2.185.073 3.045L57.052 73.333a2.26 2.26 0 0 1-1.63.667 2.26 2.26 0 0 1-1.616-.698L41.584 60.378a2.11 2.11 0 0 1 .137-3.043 2.27 2.27 0 0 1 3.14.133l10.616 11.225L77.17 46.667a2.27 2.27 0 0 1 3.142-.071" clip-rule="evenodd"/>
  <defs>
    <radialGradient id="a" cx="0" cy="0" r="1" gradientTransform="matrix(49 -51 24.7783 51 60 60)" gradientUnits="userSpaceOnUse"><stop stop-color="#801AB3" stop-opacity="0"/>
      <stop offset="1" stop-color="#4C4CFF"/>
    </radialGradient>
    <radialGradient id="b" cx="0" cy="0" r="1" gradientTransform="matrix(53.5 -50 27.0538 50 60.5 60)" gradientUnits="userSpaceOnUse">
        <stop stop-color="#801AB3" stop-opacity="0"/>
      <stop offset="1" stop-color="#4C4CFF"/>
    </radialGradient>
    <radialGradient id="c" cx="0" cy="0" r="1" gradientTransform="matrix(-34 32.6667 34 16.5189 60 59.667)" gradientUnits="userSpaceOnUse">
      <stop stop-color="#801AB3" stop-opacity="0"/>
      <stop offset="1" stop-color="#4C4CFF" stop-opacity=".5"/>
    </radialGradient>
  </defs>
</svg>
